<svg xmlns="http://www.w3.org/2000/svg" xmlns:xlink="http://www.w3.org/1999/xlink" width="169" zoomAndPan="magnify" viewBox="0 0 126.75 42.75" height="57" preserveAspectRatio="xMidYMid meet" version="1.2"><defs><clipPath id="1e116ea0fc"><path d="M 0.988281 31 L 70 31 L 70 41 L 0.988281 41 Z M 0.988281 31 "/></clipPath><clipPath id="d11b5aa206"><path d="M 32 0.746094 L 124 0.746094 L 124 42 L 32 42 Z M 32 0.746094 "/></clipPath><clipPath id="9f81c0fe33"><path d="M 0.246094 30 L 69 30 L 69 40 L 0.246094 40 Z M 0.246094 30 "/></clipPath></defs><g id="af1078c4e2"><g clip-rule="nonzero" clip-path="url(#1e116ea0fc)"><path style=" stroke:none;fill-rule:nonzero;fill:#737373;fill-opacity:1;" d="M 69.230469 36.148438 C 57.085938 33.449219 46.453125 36.75 34.703125 39.292969 C 23.136719 41.792969 11.84375 40.355469 0.988281 35.652344 C 13.132812 38.355469 23.765625 35.054688 35.515625 32.507812 C 47.082031 30.007812 58.375 31.445312 69.230469 36.148438 "/></g><path style=" stroke:none;fill-rule:nonzero;fill:#737373;fill-opacity:1;" d="M 17.792969 29.554688 C 28.707031 17.402344 46.152344 10.054688 62.035156 15.5625 C 69.753906 18.238281 76.96875 22.582031 85.113281 23.914062 C 93.929688 25.351562 102.015625 22.117188 109.414062 17.582031 L 109.777344 18.015625 C 104.523438 23.859375 97.589844 28.277344 89.671875 29.21875 C 81 30.246094 72.773438 27.039062 64.816406 24.042969 C 57.660156 21.34375 51.203125 19.660156 43.511719 21.078125 C 34.675781 22.707031 26.304688 26.398438 18.132812 30.007812 L 17.792969 29.554688 "/><g clip-rule="nonzero" clip-path="url(#d11b5aa206)"><path style=" stroke:none;fill-rule:nonzero;fill:#737373;fill-opacity:1;" d="M 32.066406 29.359375 C 39.449219 23.75 51.539062 25.050781 59.839844 26.703125 C 65.839844 27.898438 71.453125 30.078125 77.292969 31.816406 C 86.28125 34.488281 96.46875 34.019531 104.835938 29.546875 C 108.714844 27.472656 112.0625 24.480469 113.71875 20.3125 C 116.214844 14.035156 114.34375 7.457031 113.214844 1.125 L 113.675781 0.800781 C 121.65625 5.863281 125.921875 16.089844 122.992188 25.21875 C 119.683594 35.542969 109.027344 41.121094 98.71875 41.5625 C 83.390625 42.226562 71.371094 32.925781 57.238281 29.007812 C 49.933594 26.980469 39.304688 25.242188 32.421875 29.800781 L 32.066406 29.359375 "/></g><g clip-rule="nonzero" clip-path="url(#9f81c0fe33)"><path style=" stroke:none;fill-rule:nonzero;fill:#2ea5e4;fill-opacity:1;" d="M 68.484375 35.402344 C 56.339844 32.703125 45.707031 36.003906 33.957031 38.546875 C 22.390625 41.050781 11.097656 39.609375 0.246094 34.90625 C 12.386719 37.609375 23.019531 34.308594 34.769531 31.761719 C 46.335938 29.261719 57.632812 30.703125 68.484375 35.402344 "/></g><path style=" stroke:none;fill-rule:nonzero;fill:#8fd8ff;fill-opacity:1;" d="M 17.046875 28.808594 C 27.960938 16.65625 45.40625 9.308594 61.289062 14.816406 C 69.007812 17.492188 76.222656 21.835938 84.367188 23.167969 C 93.183594 24.609375 101.269531 21.371094 108.671875 16.839844 L 109.03125 17.269531 C 103.777344 23.113281 96.84375 27.53125 88.925781 28.472656 C 80.253906 29.5 72.027344 26.292969 64.070312 23.296875 C 56.914062 20.597656 50.457031 18.914062 42.765625 20.335938 C 33.929688 21.960938 25.558594 25.65625 17.386719 29.261719 L 17.046875 28.808594 "/><path style=" stroke:none;fill-rule:nonzero;fill:#8fd8ff;fill-opacity:1;" d="M 31.320312 28.613281 C 38.703125 23.003906 50.792969 24.304688 59.097656 25.957031 C 65.09375 27.152344 70.707031 29.332031 76.546875 31.070312 C 85.535156 33.742188 95.722656 33.273438 104.089844 28.800781 C 107.96875 26.726562 111.316406 23.734375 112.972656 19.566406 C 115.46875 13.289062 113.597656 6.710938 112.46875 0.378906 L 112.929688 0.0546875 C 120.910156 5.117188 125.175781 15.34375 122.246094 24.472656 C 118.9375 34.796875 108.28125 40.378906 97.972656 40.820312 C 82.644531 41.480469 70.625 32.179688 56.492188 28.261719 C 49.191406 26.234375 38.558594 24.496094 31.675781 29.054688 L 31.320312 28.613281 "/></g></svg>