<svg xmlns="http://www.w3.org/2000/svg" xmlns:xlink="http://www.w3.org/1999/xlink" width="530" zoomAndPan="magnify" viewBox="0 0 397.5 116.999995" height="156" preserveAspectRatio="xMidYMid meet" version="1.2"><defs><clipPath id="79223f5fb0"><path d="M 129.617188 31 L 199 31 L 199 41 L 129.617188 41 Z M 129.617188 31 "/></clipPath><clipPath id="6b4085edb6"><path d="M 160 0.824219 L 254 0.824219 L 254 42 L 160 42 Z M 160 0.824219 "/></clipPath><clipPath id="37a0d3d80c"><path d="M 128.867188 30 L 198 30 L 198 41 L 128.867188 41 Z M 128.867188 30 "/></clipPath><clipPath id="9f3aa5847b"><path d="M 160 0.0742188 L 253 0.0742188 L 253 42 L 160 42 Z M 160 0.0742188 "/></clipPath></defs><g id="61eebbc25a"><g clip-rule="nonzero" clip-path="url(#79223f5fb0)"><path style=" stroke:none;fill-rule:nonzero;fill:#737373;fill-opacity:1;" d="M 198.167969 36.386719 C 185.96875 33.675781 175.289062 36.988281 163.484375 39.546875 C 151.863281 42.058594 140.519531 40.613281 129.617188 35.890625 C 141.816406 38.605469 152.496094 35.289062 164.300781 32.730469 C 175.921875 30.21875 187.265625 31.664062 198.167969 36.386719 "/></g><path style=" stroke:none;fill-rule:nonzero;fill:#737373;fill-opacity:1;" d="M 146.496094 29.765625 C 157.460938 17.554688 174.984375 10.175781 190.941406 15.707031 C 198.695312 18.394531 205.945312 22.757812 214.125 24.097656 C 222.980469 25.542969 231.105469 22.292969 238.539062 17.738281 L 238.902344 18.171875 C 233.625 24.042969 226.65625 28.480469 218.703125 29.425781 C 209.992188 30.457031 201.726562 27.234375 193.734375 24.226562 C 186.546875 21.515625 180.058594 19.820312 172.332031 21.25 C 163.457031 22.886719 155.046875 26.59375 146.835938 30.21875 L 146.496094 29.765625 "/><g clip-rule="nonzero" clip-path="url(#6b4085edb6)"><path style=" stroke:none;fill-rule:nonzero;fill:#737373;fill-opacity:1;" d="M 160.835938 29.566406 C 168.25 23.933594 180.398438 25.238281 188.738281 26.898438 C 194.761719 28.101562 200.402344 30.289062 206.265625 32.035156 C 215.296875 34.71875 225.535156 34.25 233.9375 29.753906 C 237.835938 27.671875 241.195312 24.664062 242.863281 20.476562 C 245.371094 14.171875 243.488281 7.5625 242.355469 1.203125 L 242.816406 0.878906 C 250.835938 5.964844 255.117188 16.238281 252.175781 25.40625 C 248.851562 35.78125 238.148438 41.382812 227.792969 41.828125 C 212.394531 42.496094 200.320312 33.148438 186.121094 29.214844 C 178.785156 27.179688 168.105469 25.433594 161.191406 30.011719 L 160.835938 29.566406 "/></g><g style="fill:#737373;fill-opacity:1;"><g transform="translate(167.15512, 85.999495)"><path style="stroke:none" d="M 4.953125 0 L 4.953125 -41.296875 L 21.125 -41.296875 C 24.46875 -41.296875 27.359375 -40.6875 29.796875 -39.46875 C 32.234375 -38.25 34.128906 -36.519531 35.484375 -34.28125 C 36.847656 -32.039062 37.53125 -29.40625 37.53125 -26.375 C 37.53125 -23.382812 36.847656 -20.765625 35.484375 -18.515625 C 34.128906 -16.273438 32.234375 -14.546875 29.796875 -13.328125 C 27.359375 -12.109375 24.46875 -11.5 21.125 -11.5 L 14.34375 -11.5 L 14.34375 0 Z M 14.28125 -19.59375 L 20.359375 -19.59375 C 22.796875 -19.59375 24.671875 -20.171875 25.984375 -21.328125 C 27.304688 -22.484375 27.96875 -24.144531 27.96875 -26.3125 C 27.96875 -28.476562 27.304688 -30.148438 25.984375 -31.328125 C 24.671875 -32.503906 22.796875 -33.09375 20.359375 -33.09375 L 14.28125 -33.09375 Z M 14.28125 -19.59375 "/></g></g><g style="fill:#737373;fill-opacity:1;"><g transform="translate(204.022452, 85.999495)"><path style="stroke:none" d="M 4.484375 0 L 4.484375 -30.96875 L 11.15625 -30.96875 L 12.328125 -26.84375 C 13.347656 -28.300781 14.601562 -29.351562 16.09375 -30 C 17.59375 -30.644531 19.484375 -30.96875 21.765625 -30.96875 L 25.140625 -30.96875 L 25.140625 -22.828125 L 21.71875 -22.828125 C 19.15625 -22.828125 17.132812 -22.140625 15.65625 -20.765625 C 14.1875 -19.390625 13.453125 -17.03125 13.453125 -13.6875 L 13.453125 0 Z M 4.484375 0 "/></g></g><g style="fill:#737373;fill-opacity:1;"><g transform="translate(228.797192, 85.999495)"><path style="stroke:none" d="M 19.109375 0.828125 C 15.804688 0.828125 12.882812 0.140625 10.34375 -1.234375 C 7.8125 -2.609375 5.835938 -4.523438 4.421875 -6.984375 C 3.003906 -9.441406 2.296875 -12.285156 2.296875 -15.515625 C 2.296875 -18.742188 3.015625 -21.578125 4.453125 -24.015625 C 5.890625 -26.453125 7.875 -28.359375 10.40625 -29.734375 C 12.945312 -31.109375 15.890625 -31.796875 19.234375 -31.796875 C 22.773438 -31.796875 25.832031 -31.007812 28.40625 -29.4375 C 30.976562 -27.863281 32.941406 -25.660156 34.296875 -22.828125 C 35.660156 -19.992188 36.242188 -16.691406 36.046875 -12.921875 L 11.203125 -12.921875 C 11.640625 -10.796875 12.582031 -9.171875 14.03125 -8.046875 C 15.488281 -6.929688 17.242188 -6.375 19.296875 -6.375 C 20.785156 -6.375 22.148438 -6.65625 23.390625 -7.21875 C 24.628906 -7.789062 25.625 -8.585938 26.375 -9.609375 L 35.453125 -9.609375 C 34.117188 -6.347656 32.015625 -3.789062 29.140625 -1.9375 C 26.273438 -0.09375 22.929688 0.828125 19.109375 0.828125 Z M 11.265625 -18.578125 L 27.375 -18.578125 C 26.863281 -20.472656 25.910156 -21.957031 24.515625 -23.03125 C 23.117188 -24.113281 21.378906 -24.65625 19.296875 -24.65625 C 17.328125 -24.65625 15.625 -24.113281 14.1875 -23.03125 C 12.75 -21.957031 11.773438 -20.472656 11.265625 -18.578125 Z M 11.265625 -18.578125 "/></g></g><g style="fill:#737373;fill-opacity:1;"><g transform="translate(264.720715, 85.999495)"><path style="stroke:none" d="M 18.046875 0.828125 C 14.984375 0.828125 12.269531 0.128906 9.90625 -1.265625 C 7.550781 -2.660156 5.691406 -4.585938 4.328125 -7.046875 C 2.972656 -9.503906 2.296875 -12.328125 2.296875 -15.515625 C 2.296875 -18.703125 2.972656 -21.515625 4.328125 -23.953125 C 5.691406 -26.390625 7.550781 -28.304688 9.90625 -29.703125 C 12.269531 -31.097656 14.984375 -31.796875 18.046875 -31.796875 C 19.972656 -31.796875 21.765625 -31.507812 23.421875 -30.9375 C 25.078125 -30.375 26.570312 -29.582031 27.90625 -28.5625 L 27.90625 -43.65625 L 36.875 -43.65625 L 36.875 0 L 30.203125 0 L 29.140625 -3.546875 C 27.765625 -2.160156 26.132812 -1.082031 24.25 -0.3125 C 22.363281 0.445312 20.296875 0.828125 18.046875 0.828125 Z M 11.15625 -15.515625 C 11.15625 -12.992188 11.953125 -10.925781 13.546875 -9.3125 C 15.140625 -7.707031 17.191406 -6.90625 19.703125 -6.90625 C 22.222656 -6.90625 24.269531 -7.707031 25.84375 -9.3125 C 27.414062 -10.925781 28.203125 -12.992188 28.203125 -15.515625 C 28.203125 -18.035156 27.414062 -20.097656 25.84375 -21.703125 C 24.269531 -23.316406 22.222656 -24.125 19.703125 -24.125 C 17.191406 -24.125 15.140625 -23.316406 13.546875 -21.703125 C 11.953125 -20.097656 11.15625 -18.035156 11.15625 -15.515625 Z M 11.15625 -15.515625 "/></g></g><g style="fill:#737373;fill-opacity:1;"><g transform="translate(303.711619, 85.999495)"><path style="stroke:none" d="M 4.484375 0 L 4.484375 -30.96875 L 13.453125 -30.96875 L 13.453125 0 Z M 3.1875 -41 C 3.1875 -42.65625 3.726562 -44.003906 4.8125 -45.046875 C 5.894531 -46.085938 7.28125 -46.609375 8.96875 -46.609375 C 10.695312 -46.609375 12.09375 -46.085938 13.15625 -45.046875 C 14.21875 -44.003906 14.75 -42.65625 14.75 -41 C 14.75 -39.351562 14.21875 -38.007812 13.15625 -36.96875 C 12.09375 -35.925781 10.695312 -35.40625 8.96875 -35.40625 C 7.28125 -35.40625 5.894531 -35.925781 4.8125 -36.96875 C 3.726562 -38.007812 3.1875 -39.351562 3.1875 -41 Z M 3.1875 -41 "/></g></g><g style="fill:#737373;fill-opacity:1;"><g transform="translate(319.284205, 85.999495)"><path style="stroke:none" d="M 19.234375 0.828125 C 15.929688 0.828125 13 0.128906 10.4375 -1.265625 C 7.882812 -2.660156 5.890625 -4.585938 4.453125 -7.046875 C 3.015625 -9.503906 2.296875 -12.328125 2.296875 -15.515625 C 2.296875 -18.703125 3.015625 -21.515625 4.453125 -23.953125 C 5.890625 -26.390625 7.882812 -28.304688 10.4375 -29.703125 C 13 -31.097656 15.929688 -31.796875 19.234375 -31.796875 C 22.109375 -31.796875 24.710938 -31.273438 27.046875 -30.234375 C 29.390625 -29.191406 31.328125 -27.71875 32.859375 -25.8125 C 34.390625 -23.90625 35.394531 -21.671875 35.875 -19.109375 L 27.265625 -19.109375 C 26.515625 -20.679688 25.445312 -21.910156 24.0625 -22.796875 C 22.6875 -23.679688 21.117188 -24.125 19.359375 -24.125 C 16.953125 -24.125 14.984375 -23.328125 13.453125 -21.734375 C 11.921875 -20.148438 11.15625 -18.078125 11.15625 -15.515625 C 11.15625 -12.992188 11.921875 -10.925781 13.453125 -9.3125 C 14.984375 -7.707031 16.953125 -6.90625 19.359375 -6.90625 C 21.242188 -6.90625 22.898438 -7.40625 24.328125 -8.40625 C 25.765625 -9.40625 26.800781 -10.753906 27.4375 -12.453125 L 36.171875 -12.453125 C 35.617188 -9.734375 34.566406 -7.378906 33.015625 -5.390625 C 31.460938 -3.410156 29.503906 -1.878906 27.140625 -0.796875 C 24.773438 0.285156 22.140625 0.828125 19.234375 0.828125 Z M 19.234375 0.828125 "/></g></g><g style="fill:#737373;fill-opacity:1;"><g transform="translate(355.266717, 85.999495)"><path style="stroke:none" d="M 19.40625 0 C 15.476562 0 12.460938 -1.007812 10.359375 -3.03125 C 8.253906 -5.0625 7.203125 -7.960938 7.203125 -11.734375 L 7.203125 -23.65625 L 1.1875 -23.65625 L 1.1875 -30.96875 L 3.953125 -30.96875 C 5.640625 -30.96875 6.785156 -31.242188 7.390625 -31.796875 C 8.003906 -32.347656 8.429688 -33.410156 8.671875 -34.984375 L 9.203125 -39 L 16.171875 -39 L 16.171875 -30.96875 L 24.65625 -30.96875 L 24.65625 -23.65625 L 16.171875 -23.65625 L 16.171875 -13.09375 C 16.171875 -9.550781 17.898438 -7.78125 21.359375 -7.78125 L 25.078125 -7.78125 L 25.078125 0 Z M 19.40625 0 "/></g></g><g style="fill:#737373;fill-opacity:1;"><g transform="translate(16.371847, 85.999495)"><path style="stroke:none" d="M 0.53125 0 L 16.9375 -41.296875 L 26.140625 -41.296875 L 42.53125 0 L 32.515625 0 L 29.734375 -7.140625 L 13.328125 -7.140625 L 10.5625 0 Z M 15.75 -14.515625 L 27.375 -14.515625 L 21.53125 -29.625 Z M 15.75 -14.515625 "/></g></g><g style="fill:#737373;fill-opacity:1;"><g transform="translate(57.073414, 85.999495)"><path style="stroke:none" d="M 18.046875 0.828125 C 14.984375 0.828125 12.269531 0.128906 9.90625 -1.265625 C 7.550781 -2.660156 5.691406 -4.585938 4.328125 -7.046875 C 2.972656 -9.503906 2.296875 -12.328125 2.296875 -15.515625 C 2.296875 -18.703125 2.972656 -21.515625 4.328125 -23.953125 C 5.691406 -26.390625 7.550781 -28.304688 9.90625 -29.703125 C 12.269531 -31.097656 14.984375 -31.796875 18.046875 -31.796875 C 20.296875 -31.796875 22.375 -31.410156 24.28125 -30.640625 C 26.1875 -29.878906 27.828125 -28.8125 29.203125 -27.4375 L 30.203125 -30.96875 L 36.875 -30.96875 L 36.875 11.796875 L 27.90625 11.796875 L 27.90625 -2.421875 C 26.570312 -1.398438 25.078125 -0.601562 23.421875 -0.03125 C 21.765625 0.539062 19.972656 0.828125 18.046875 0.828125 Z M 11.15625 -15.515625 C 11.15625 -12.992188 11.953125 -10.925781 13.546875 -9.3125 C 15.140625 -7.707031 17.191406 -6.90625 19.703125 -6.90625 C 22.222656 -6.90625 24.269531 -7.707031 25.84375 -9.3125 C 27.414062 -10.925781 28.203125 -12.992188 28.203125 -15.515625 C 28.203125 -18.035156 27.414062 -20.097656 25.84375 -21.703125 C 24.269531 -23.316406 22.222656 -24.125 19.703125 -24.125 C 17.191406 -24.125 15.140625 -23.316406 13.546875 -21.703125 C 11.953125 -20.097656 11.15625 -18.035156 11.15625 -15.515625 Z M 11.15625 -15.515625 "/></g></g><g style="fill:#737373;fill-opacity:1;"><g transform="translate(96.064318, 85.999495)"><path style="stroke:none" d="M 16.8125 0.828125 C 12.800781 0.828125 9.644531 -0.4375 7.34375 -2.96875 C 5.039062 -5.507812 3.890625 -8.925781 3.890625 -13.21875 L 3.890625 -30.96875 L 12.859375 -30.96875 L 12.859375 -14.09375 C 12.859375 -11.8125 13.398438 -10.039062 14.484375 -8.78125 C 15.566406 -7.53125 17.050781 -6.90625 18.9375 -6.90625 C 20.976562 -6.90625 22.609375 -7.613281 23.828125 -9.03125 C 25.054688 -10.445312 25.671875 -12.375 25.671875 -14.8125 L 25.671875 -30.96875 L 34.640625 -30.96875 L 34.640625 0 L 27.96875 0 L 27.015625 -3.484375 C 25.796875 -2.023438 24.300781 -0.941406 22.53125 -0.234375 C 20.769531 0.472656 18.863281 0.828125 16.8125 0.828125 Z M 16.8125 0.828125 "/></g></g><g style="fill:#737373;fill-opacity:1;"><g transform="translate(132.813673, 85.999495)"><path style="stroke:none" d="M 14.8125 0.59375 C 11.15625 0.59375 8.265625 -0.257812 6.140625 -1.96875 C 4.015625 -3.6875 2.953125 -6.039062 2.953125 -9.03125 C 2.953125 -11.894531 3.90625 -14.179688 5.8125 -15.890625 C 7.71875 -17.609375 10.285156 -18.46875 13.515625 -18.46875 L 24.71875 -18.46875 L 24.71875 -19.890625 C 24.71875 -21.421875 24.164062 -22.644531 23.0625 -23.5625 C 21.96875 -24.488281 20.535156 -24.953125 18.765625 -24.953125 C 17.304688 -24.953125 16.066406 -24.617188 15.046875 -23.953125 C 14.023438 -23.285156 13.375 -22.398438 13.09375 -21.296875 L 4.484375 -21.296875 C 5.035156 -24.679688 6.554688 -27.273438 9.046875 -29.078125 C 11.546875 -30.890625 14.765625 -31.796875 18.703125 -31.796875 C 23.347656 -31.796875 26.976562 -30.625 29.59375 -28.28125 C 32.207031 -25.945312 33.515625 -22.734375 33.515625 -18.640625 L 33.515625 0 L 26.84375 0 L 25.84375 -3.59375 C 23.125 -0.800781 19.445312 0.59375 14.8125 0.59375 Z M 11.796875 -9.375 C 11.796875 -8.3125 12.257812 -7.457031 13.1875 -6.8125 C 14.113281 -6.164062 15.34375 -5.84375 16.875 -5.84375 C 19.113281 -5.84375 20.96875 -6.488281 22.4375 -7.78125 C 23.914062 -9.082031 24.695312 -10.773438 24.78125 -12.859375 L 16.28125 -12.859375 C 14.945312 -12.859375 13.863281 -12.539062 13.03125 -11.90625 C 12.207031 -11.28125 11.796875 -10.4375 11.796875 -9.375 Z M 11.796875 -9.375 "/></g></g><g clip-rule="nonzero" clip-path="url(#37a0d3d80c)"><path style=" stroke:none;fill-rule:nonzero;fill:#2ea5e4;fill-opacity:1;" d="M 197.417969 35.636719 C 185.21875 32.925781 174.539062 36.242188 162.734375 38.796875 C 151.113281 41.3125 139.769531 39.863281 128.867188 35.140625 C 141.066406 37.855469 151.746094 34.539062 163.550781 31.980469 C 175.171875 29.46875 186.515625 30.914062 197.417969 35.636719 "/></g><path style=" stroke:none;fill-rule:nonzero;fill:#8fd8ff;fill-opacity:1;" d="M 145.746094 29.015625 C 156.710938 16.804688 174.234375 9.425781 190.191406 14.957031 C 197.945312 17.644531 205.195312 22.011719 213.375 23.347656 C 222.234375 24.792969 230.355469 21.542969 237.789062 16.988281 L 238.152344 17.421875 C 232.875 23.292969 225.910156 27.730469 217.953125 28.675781 C 209.242188 29.710938 200.980469 26.488281 192.984375 23.476562 C 185.796875 20.765625 179.308594 19.074219 171.582031 20.5 C 162.707031 22.136719 154.296875 25.84375 146.089844 29.46875 L 145.746094 29.015625 "/><g clip-rule="nonzero" clip-path="url(#9f3aa5847b)"><path style=" stroke:none;fill-rule:nonzero;fill:#8fd8ff;fill-opacity:1;" d="M 160.085938 28.816406 C 167.5 23.183594 179.648438 24.488281 187.988281 26.148438 C 194.011719 27.351562 199.652344 29.539062 205.519531 31.285156 C 214.546875 33.96875 224.785156 33.5 233.1875 29.003906 C 237.085938 26.921875 240.449219 23.917969 242.113281 19.730469 C 244.621094 13.425781 242.738281 6.816406 241.605469 0.453125 L 242.070312 0.128906 C 250.085938 5.214844 254.371094 15.488281 251.425781 24.660156 C 248.105469 35.03125 237.398438 40.636719 227.042969 41.078125 C 211.644531 41.746094 199.570312 32.402344 185.375 28.464844 C 178.035156 26.429688 167.355469 24.683594 160.445312 29.261719 L 160.085938 28.816406 "/></g><g style="fill:#8fd8ff;fill-opacity:1;"><g transform="translate(166.406062, 85.250436)"><path style="stroke:none" d="M 4.953125 0 L 4.953125 -41.296875 L 21.125 -41.296875 C 24.46875 -41.296875 27.359375 -40.6875 29.796875 -39.46875 C 32.234375 -38.25 34.128906 -36.519531 35.484375 -34.28125 C 36.847656 -32.039062 37.53125 -29.40625 37.53125 -26.375 C 37.53125 -23.382812 36.847656 -20.765625 35.484375 -18.515625 C 34.128906 -16.273438 32.234375 -14.546875 29.796875 -13.328125 C 27.359375 -12.109375 24.46875 -11.5 21.125 -11.5 L 14.34375 -11.5 L 14.34375 0 Z M 14.28125 -19.59375 L 20.359375 -19.59375 C 22.796875 -19.59375 24.671875 -20.171875 25.984375 -21.328125 C 27.304688 -22.484375 27.96875 -24.144531 27.96875 -26.3125 C 27.96875 -28.476562 27.304688 -30.148438 25.984375 -31.328125 C 24.671875 -32.503906 22.796875 -33.09375 20.359375 -33.09375 L 14.28125 -33.09375 Z M 14.28125 -19.59375 "/></g></g><g style="fill:#8fd8ff;fill-opacity:1;"><g transform="translate(203.273394, 85.250436)"><path style="stroke:none" d="M 4.484375 0 L 4.484375 -30.96875 L 11.15625 -30.96875 L 12.328125 -26.84375 C 13.347656 -28.300781 14.601562 -29.351562 16.09375 -30 C 17.59375 -30.644531 19.484375 -30.96875 21.765625 -30.96875 L 25.140625 -30.96875 L 25.140625 -22.828125 L 21.71875 -22.828125 C 19.15625 -22.828125 17.132812 -22.140625 15.65625 -20.765625 C 14.1875 -19.390625 13.453125 -17.03125 13.453125 -13.6875 L 13.453125 0 Z M 4.484375 0 "/></g></g><g style="fill:#8fd8ff;fill-opacity:1;"><g transform="translate(228.048134, 85.250436)"><path style="stroke:none" d="M 19.109375 0.828125 C 15.804688 0.828125 12.882812 0.140625 10.34375 -1.234375 C 7.8125 -2.609375 5.835938 -4.523438 4.421875 -6.984375 C 3.003906 -9.441406 2.296875 -12.285156 2.296875 -15.515625 C 2.296875 -18.742188 3.015625 -21.578125 4.453125 -24.015625 C 5.890625 -26.453125 7.875 -28.359375 10.40625 -29.734375 C 12.945312 -31.109375 15.890625 -31.796875 19.234375 -31.796875 C 22.773438 -31.796875 25.832031 -31.007812 28.40625 -29.4375 C 30.976562 -27.863281 32.941406 -25.660156 34.296875 -22.828125 C 35.660156 -19.992188 36.242188 -16.691406 36.046875 -12.921875 L 11.203125 -12.921875 C 11.640625 -10.796875 12.582031 -9.171875 14.03125 -8.046875 C 15.488281 -6.929688 17.242188 -6.375 19.296875 -6.375 C 20.785156 -6.375 22.148438 -6.65625 23.390625 -7.21875 C 24.628906 -7.789062 25.625 -8.585938 26.375 -9.609375 L 35.453125 -9.609375 C 34.117188 -6.347656 32.015625 -3.789062 29.140625 -1.9375 C 26.273438 -0.09375 22.929688 0.828125 19.109375 0.828125 Z M 11.265625 -18.578125 L 27.375 -18.578125 C 26.863281 -20.472656 25.910156 -21.957031 24.515625 -23.03125 C 23.117188 -24.113281 21.378906 -24.65625 19.296875 -24.65625 C 17.328125 -24.65625 15.625 -24.113281 14.1875 -23.03125 C 12.75 -21.957031 11.773438 -20.472656 11.265625 -18.578125 Z M 11.265625 -18.578125 "/></g></g><g style="fill:#8fd8ff;fill-opacity:1;"><g transform="translate(263.971657, 85.250436)"><path style="stroke:none" d="M 18.046875 0.828125 C 14.984375 0.828125 12.269531 0.128906 9.90625 -1.265625 C 7.550781 -2.660156 5.691406 -4.585938 4.328125 -7.046875 C 2.972656 -9.503906 2.296875 -12.328125 2.296875 -15.515625 C 2.296875 -18.703125 2.972656 -21.515625 4.328125 -23.953125 C 5.691406 -26.390625 7.550781 -28.304688 9.90625 -29.703125 C 12.269531 -31.097656 14.984375 -31.796875 18.046875 -31.796875 C 19.972656 -31.796875 21.765625 -31.507812 23.421875 -30.9375 C 25.078125 -30.375 26.570312 -29.582031 27.90625 -28.5625 L 27.90625 -43.65625 L 36.875 -43.65625 L 36.875 0 L 30.203125 0 L 29.140625 -3.546875 C 27.765625 -2.160156 26.132812 -1.082031 24.25 -0.3125 C 22.363281 0.445312 20.296875 0.828125 18.046875 0.828125 Z M 11.15625 -15.515625 C 11.15625 -12.992188 11.953125 -10.925781 13.546875 -9.3125 C 15.140625 -7.707031 17.191406 -6.90625 19.703125 -6.90625 C 22.222656 -6.90625 24.269531 -7.707031 25.84375 -9.3125 C 27.414062 -10.925781 28.203125 -12.992188 28.203125 -15.515625 C 28.203125 -18.035156 27.414062 -20.097656 25.84375 -21.703125 C 24.269531 -23.316406 22.222656 -24.125 19.703125 -24.125 C 17.191406 -24.125 15.140625 -23.316406 13.546875 -21.703125 C 11.953125 -20.097656 11.15625 -18.035156 11.15625 -15.515625 Z M 11.15625 -15.515625 "/></g></g><g style="fill:#8fd8ff;fill-opacity:1;"><g transform="translate(302.962562, 85.250436)"><path style="stroke:none" d="M 4.484375 0 L 4.484375 -30.96875 L 13.453125 -30.96875 L 13.453125 0 Z M 3.1875 -41 C 3.1875 -42.65625 3.726562 -44.003906 4.8125 -45.046875 C 5.894531 -46.085938 7.28125 -46.609375 8.96875 -46.609375 C 10.695312 -46.609375 12.09375 -46.085938 13.15625 -45.046875 C 14.21875 -44.003906 14.75 -42.65625 14.75 -41 C 14.75 -39.351562 14.21875 -38.007812 13.15625 -36.96875 C 12.09375 -35.925781 10.695312 -35.40625 8.96875 -35.40625 C 7.28125 -35.40625 5.894531 -35.925781 4.8125 -36.96875 C 3.726562 -38.007812 3.1875 -39.351562 3.1875 -41 Z M 3.1875 -41 "/></g></g><g style="fill:#8fd8ff;fill-opacity:1;"><g transform="translate(318.535147, 85.250436)"><path style="stroke:none" d="M 19.234375 0.828125 C 15.929688 0.828125 13 0.128906 10.4375 -1.265625 C 7.882812 -2.660156 5.890625 -4.585938 4.453125 -7.046875 C 3.015625 -9.503906 2.296875 -12.328125 2.296875 -15.515625 C 2.296875 -18.703125 3.015625 -21.515625 4.453125 -23.953125 C 5.890625 -26.390625 7.882812 -28.304688 10.4375 -29.703125 C 13 -31.097656 15.929688 -31.796875 19.234375 -31.796875 C 22.109375 -31.796875 24.710938 -31.273438 27.046875 -30.234375 C 29.390625 -29.191406 31.328125 -27.71875 32.859375 -25.8125 C 34.390625 -23.90625 35.394531 -21.671875 35.875 -19.109375 L 27.265625 -19.109375 C 26.515625 -20.679688 25.445312 -21.910156 24.0625 -22.796875 C 22.6875 -23.679688 21.117188 -24.125 19.359375 -24.125 C 16.953125 -24.125 14.984375 -23.328125 13.453125 -21.734375 C 11.921875 -20.148438 11.15625 -18.078125 11.15625 -15.515625 C 11.15625 -12.992188 11.921875 -10.925781 13.453125 -9.3125 C 14.984375 -7.707031 16.953125 -6.90625 19.359375 -6.90625 C 21.242188 -6.90625 22.898438 -7.40625 24.328125 -8.40625 C 25.765625 -9.40625 26.800781 -10.753906 27.4375 -12.453125 L 36.171875 -12.453125 C 35.617188 -9.734375 34.566406 -7.378906 33.015625 -5.390625 C 31.460938 -3.410156 29.503906 -1.878906 27.140625 -0.796875 C 24.773438 0.285156 22.140625 0.828125 19.234375 0.828125 Z M 19.234375 0.828125 "/></g></g><g style="fill:#8fd8ff;fill-opacity:1;"><g transform="translate(354.51766, 85.250436)"><path style="stroke:none" d="M 19.40625 0 C 15.476562 0 12.460938 -1.007812 10.359375 -3.03125 C 8.253906 -5.0625 7.203125 -7.960938 7.203125 -11.734375 L 7.203125 -23.65625 L 1.1875 -23.65625 L 1.1875 -30.96875 L 3.953125 -30.96875 C 5.640625 -30.96875 6.785156 -31.242188 7.390625 -31.796875 C 8.003906 -32.347656 8.429688 -33.410156 8.671875 -34.984375 L 9.203125 -39 L 16.171875 -39 L 16.171875 -30.96875 L 24.65625 -30.96875 L 24.65625 -23.65625 L 16.171875 -23.65625 L 16.171875 -13.09375 C 16.171875 -9.550781 17.898438 -7.78125 21.359375 -7.78125 L 25.078125 -7.78125 L 25.078125 0 Z M 19.40625 0 "/></g></g><g style="fill:#2ea5e4;fill-opacity:1;"><g transform="translate(15.622789, 85.250436)"><path style="stroke:none" d="M 0.53125 0 L 16.9375 -41.296875 L 26.140625 -41.296875 L 42.53125 0 L 32.515625 0 L 29.734375 -7.140625 L 13.328125 -7.140625 L 10.5625 0 Z M 15.75 -14.515625 L 27.375 -14.515625 L 21.53125 -29.625 Z M 15.75 -14.515625 "/></g></g><g style="fill:#2ea5e4;fill-opacity:1;"><g transform="translate(56.324356, 85.250436)"><path style="stroke:none" d="M 18.046875 0.828125 C 14.984375 0.828125 12.269531 0.128906 9.90625 -1.265625 C 7.550781 -2.660156 5.691406 -4.585938 4.328125 -7.046875 C 2.972656 -9.503906 2.296875 -12.328125 2.296875 -15.515625 C 2.296875 -18.703125 2.972656 -21.515625 4.328125 -23.953125 C 5.691406 -26.390625 7.550781 -28.304688 9.90625 -29.703125 C 12.269531 -31.097656 14.984375 -31.796875 18.046875 -31.796875 C 20.296875 -31.796875 22.375 -31.410156 24.28125 -30.640625 C 26.1875 -29.878906 27.828125 -28.8125 29.203125 -27.4375 L 30.203125 -30.96875 L 36.875 -30.96875 L 36.875 11.796875 L 27.90625 11.796875 L 27.90625 -2.421875 C 26.570312 -1.398438 25.078125 -0.601562 23.421875 -0.03125 C 21.765625 0.539062 19.972656 0.828125 18.046875 0.828125 Z M 11.15625 -15.515625 C 11.15625 -12.992188 11.953125 -10.925781 13.546875 -9.3125 C 15.140625 -7.707031 17.191406 -6.90625 19.703125 -6.90625 C 22.222656 -6.90625 24.269531 -7.707031 25.84375 -9.3125 C 27.414062 -10.925781 28.203125 -12.992188 28.203125 -15.515625 C 28.203125 -18.035156 27.414062 -20.097656 25.84375 -21.703125 C 24.269531 -23.316406 22.222656 -24.125 19.703125 -24.125 C 17.191406 -24.125 15.140625 -23.316406 13.546875 -21.703125 C 11.953125 -20.097656 11.15625 -18.035156 11.15625 -15.515625 Z M 11.15625 -15.515625 "/></g></g><g style="fill:#2ea5e4;fill-opacity:1;"><g transform="translate(95.315261, 85.250436)"><path style="stroke:none" d="M 16.8125 0.828125 C 12.800781 0.828125 9.644531 -0.4375 7.34375 -2.96875 C 5.039062 -5.507812 3.890625 -8.925781 3.890625 -13.21875 L 3.890625 -30.96875 L 12.859375 -30.96875 L 12.859375 -14.09375 C 12.859375 -11.8125 13.398438 -10.039062 14.484375 -8.78125 C 15.566406 -7.53125 17.050781 -6.90625 18.9375 -6.90625 C 20.976562 -6.90625 22.609375 -7.613281 23.828125 -9.03125 C 25.054688 -10.445312 25.671875 -12.375 25.671875 -14.8125 L 25.671875 -30.96875 L 34.640625 -30.96875 L 34.640625 0 L 27.96875 0 L 27.015625 -3.484375 C 25.796875 -2.023438 24.300781 -0.941406 22.53125 -0.234375 C 20.769531 0.472656 18.863281 0.828125 16.8125 0.828125 Z M 16.8125 0.828125 "/></g></g><g style="fill:#2ea5e4;fill-opacity:1;"><g transform="translate(132.064615, 85.250436)"><path style="stroke:none" d="M 14.8125 0.59375 C 11.15625 0.59375 8.265625 -0.257812 6.140625 -1.96875 C 4.015625 -3.6875 2.953125 -6.039062 2.953125 -9.03125 C 2.953125 -11.894531 3.90625 -14.179688 5.8125 -15.890625 C 7.71875 -17.609375 10.285156 -18.46875 13.515625 -18.46875 L 24.71875 -18.46875 L 24.71875 -19.890625 C 24.71875 -21.421875 24.164062 -22.644531 23.0625 -23.5625 C 21.96875 -24.488281 20.535156 -24.953125 18.765625 -24.953125 C 17.304688 -24.953125 16.066406 -24.617188 15.046875 -23.953125 C 14.023438 -23.285156 13.375 -22.398438 13.09375 -21.296875 L 4.484375 -21.296875 C 5.035156 -24.679688 6.554688 -27.273438 9.046875 -29.078125 C 11.546875 -30.890625 14.765625 -31.796875 18.703125 -31.796875 C 23.347656 -31.796875 26.976562 -30.625 29.59375 -28.28125 C 32.207031 -25.945312 33.515625 -22.734375 33.515625 -18.640625 L 33.515625 0 L 26.84375 0 L 25.84375 -3.59375 C 23.125 -0.800781 19.445312 0.59375 14.8125 0.59375 Z M 11.796875 -9.375 C 11.796875 -8.3125 12.257812 -7.457031 13.1875 -6.8125 C 14.113281 -6.164062 15.34375 -5.84375 16.875 -5.84375 C 19.113281 -5.84375 20.96875 -6.488281 22.4375 -7.78125 C 23.914062 -9.082031 24.695312 -10.773438 24.78125 -12.859375 L 16.28125 -12.859375 C 14.945312 -12.859375 13.863281 -12.539062 13.03125 -11.90625 C 12.207031 -11.28125 11.796875 -10.4375 11.796875 -9.375 Z M 11.796875 -9.375 "/></g></g></g></svg>