<svg xmlns="http://www.w3.org/2000/svg" xmlns:xlink="http://www.w3.org/1999/xlink" width="5000" zoomAndPan="magnify" viewBox="0 0 3750 1499.999933" height="2000" preserveAspectRatio="xMidYMid meet" version="1.2"><defs><clipPath id="b5a17be8ed"><path d="M 92.242188 568 L 1251 568 L 1251 725 L 92.242188 725 Z M 92.242188 568 "/></clipPath></defs><g id="4cf6dc6c9f"><g clip-rule="nonzero" clip-path="url(#b5a17be8ed)"><path style=" stroke:none;fill-rule:nonzero;fill:#666666;fill-opacity:1;" d="M 1250.730469 650.46875 C 1044.566406 604.65625 864.078125 660.660156 664.597656 703.867188 C 468.214844 746.339844 276.476562 721.882812 92.242188 642.074219 C 298.40625 687.96875 478.894531 631.882812 678.375 588.675781 C 874.757812 546.203125 1066.496094 570.660156 1250.730469 650.46875 "/></g><path style=" stroke:none;fill-rule:nonzero;fill:#666666;fill-opacity:1;" d="M 377.480469 538.542969 C 562.777344 332.214844 858.941406 207.488281 1128.613281 300.992188 C 1259.617188 346.398438 1382.140625 420.175781 1520.402344 442.753906 C 1670.074219 467.210938 1807.351562 412.265625 1932.976562 335.3125 L 1939.089844 342.648438 C 1849.90625 441.859375 1732.191406 516.859375 1597.765625 532.835938 C 1450.539062 550.28125 1310.894531 495.824219 1175.8125 444.957031 C 1054.347656 399.140625 944.703125 370.527344 814.105469 394.65625 C 664.109375 422.292969 522.019531 484.984375 383.269531 546.203125 L 377.480469 538.542969 "/><path style=" stroke:none;fill-rule:nonzero;fill:#666666;fill-opacity:1;" d="M 619.84375 535.199219 C 745.140625 439.984375 950.410156 462.074219 1091.359375 490.117188 C 1193.175781 510.417969 1288.476562 547.429688 1387.605469 576.9375 C 1540.210938 622.265625 1713.195312 614.355469 1855.207031 538.378906 C 1921.074219 503.160156 1977.894531 452.375 2006.019531 381.613281 C 2048.410156 275.066406 2016.617188 163.382812 1997.460938 55.859375 L 2005.285156 50.398438 C 2140.773438 136.320312 2213.164062 309.957031 2163.433594 464.929688 C 2107.269531 640.199219 1926.375 734.925781 1751.347656 742.425781 C 1491.136719 753.675781 1287.089844 595.769531 1047.175781 529.25 C 923.179688 494.847656 742.695312 465.335938 625.875 542.699219 L 619.84375 535.199219 "/><g style="fill:#666666;fill-opacity:1;"><g transform="translate(87.147667, 1312.778755)"><path style="stroke:none" d="M 215.578125 8.59375 C 162.328125 8.59375 120.238281 -3.859375 89.3125 -28.765625 C 58.394531 -53.679688 42.9375 -87.894531 42.9375 -131.40625 C 42.9375 -173.207031 56.820312 -206.5625 84.59375 -231.46875 C 112.363281 -256.375 149.726562 -268.828125 196.6875 -268.828125 L 359.875 -268.828125 L 359.875 -289.453125 C 359.875 -311.773438 351.859375 -329.664062 335.828125 -343.125 C 319.796875 -356.582031 298.894531 -363.3125 273.125 -363.3125 C 251.9375 -363.3125 233.898438 -358.441406 219.015625 -348.703125 C 204.128906 -338.972656 194.679688 -326.09375 190.671875 -310.0625 L 65.28125 -310.0625 C 73.289062 -359.300781 95.472656 -397.085938 131.828125 -423.421875 C 168.191406 -449.765625 215.003906 -462.9375 272.265625 -462.9375 C 339.835938 -462.9375 392.660156 -445.898438 430.734375 -411.828125 C 468.804688 -377.765625 487.84375 -330.957031 487.84375 -271.40625 L 487.84375 0 L 390.796875 0 L 376.1875 -52.390625 C 336.6875 -11.734375 283.148438 8.59375 215.578125 8.59375 Z M 171.78125 -136.5625 C 171.78125 -121.101562 178.503906 -108.648438 191.953125 -99.203125 C 205.410156 -89.753906 223.304688 -85.03125 245.640625 -85.03125 C 278.273438 -85.03125 305.328125 -94.476562 326.796875 -113.375 C 348.273438 -132.269531 359.585938 -156.890625 360.734375 -187.234375 L 237.046875 -187.234375 C 217.578125 -187.234375 201.832031 -182.648438 189.8125 -173.484375 C 177.789062 -164.328125 171.78125 -152.019531 171.78125 -136.5625 Z M 171.78125 -136.5625 "/></g></g><g style="fill:#666666;fill-opacity:1;"><g transform="translate(597.10669, 1312.778755)"><path style="stroke:none" d="M 262.828125 12.03125 C 218.160156 12.03125 178.648438 1.867188 144.296875 -18.453125 C 109.941406 -38.785156 82.882812 -66.84375 63.125 -102.625 C 43.375 -138.414062 33.5 -179.503906 33.5 -225.890625 C 33.5 -272.265625 43.375 -313.203125 63.125 -348.703125 C 82.882812 -384.203125 109.941406 -412.113281 144.296875 -432.4375 C 178.648438 -452.769531 218.160156 -462.9375 262.828125 -462.9375 C 295.460938 -462.9375 325.664062 -457.351562 353.4375 -446.1875 C 381.207031 -435.019531 405.113281 -419.421875 425.15625 -399.390625 L 439.75 -450.921875 L 536.8125 -450.921875 L 536.8125 171.78125 L 406.25 171.78125 L 406.25 -35.21875 C 386.78125 -20.332031 365.019531 -8.734375 340.96875 -0.421875 C 316.925781 7.878906 290.878906 12.03125 262.828125 12.03125 Z M 162.328125 -225.890625 C 162.328125 -189.242188 173.921875 -159.179688 197.109375 -135.703125 C 220.304688 -112.222656 250.226562 -100.484375 286.875 -100.484375 C 323.519531 -100.484375 353.289062 -112.222656 376.1875 -135.703125 C 399.09375 -159.179688 410.546875 -189.242188 410.546875 -225.890625 C 410.546875 -262.535156 399.09375 -292.59375 376.1875 -316.0625 C 353.289062 -339.539062 323.519531 -351.28125 286.875 -351.28125 C 250.226562 -351.28125 220.304688 -339.539062 197.109375 -316.0625 C 173.921875 -292.59375 162.328125 -262.535156 162.328125 -225.890625 Z M 162.328125 -225.890625 "/></g></g><g style="fill:#666666;fill-opacity:1;"><g transform="translate(1164.589065, 1312.778755)"><path style="stroke:none" d="M 244.78125 12.03125 C 186.375 12.03125 140.421875 -6.429688 106.921875 -43.359375 C 73.429688 -80.296875 56.6875 -129.972656 56.6875 -192.390625 L 56.6875 -450.921875 L 187.234375 -450.921875 L 187.234375 -205.28125 C 187.234375 -172.0625 195.109375 -146.289062 210.859375 -127.96875 C 226.609375 -109.644531 248.222656 -100.484375 275.703125 -100.484375 C 305.472656 -100.484375 329.234375 -110.789062 346.984375 -131.40625 C 364.742188 -152.019531 373.625 -180.078125 373.625 -215.578125 L 373.625 -450.921875 L 504.171875 -450.921875 L 504.171875 0 L 407.109375 0 L 393.375 -50.671875 C 375.625 -29.484375 353.863281 -13.734375 328.09375 -3.421875 C 302.332031 6.878906 274.5625 12.03125 244.78125 12.03125 Z M 244.78125 12.03125 "/></g></g><g style="fill:#666666;fill-opacity:1;"><g transform="translate(1699.446321, 1312.778755)"><path style="stroke:none" d="M 215.578125 8.59375 C 162.328125 8.59375 120.238281 -3.859375 89.3125 -28.765625 C 58.394531 -53.679688 42.9375 -87.894531 42.9375 -131.40625 C 42.9375 -173.207031 56.820312 -206.5625 84.59375 -231.46875 C 112.363281 -256.375 149.726562 -268.828125 196.6875 -268.828125 L 359.875 -268.828125 L 359.875 -289.453125 C 359.875 -311.773438 351.859375 -329.664062 335.828125 -343.125 C 319.796875 -356.582031 298.894531 -363.3125 273.125 -363.3125 C 251.9375 -363.3125 233.898438 -358.441406 219.015625 -348.703125 C 204.128906 -338.972656 194.679688 -326.09375 190.671875 -310.0625 L 65.28125 -310.0625 C 73.289062 -359.300781 95.472656 -397.085938 131.828125 -423.421875 C 168.191406 -449.765625 215.003906 -462.9375 272.265625 -462.9375 C 339.835938 -462.9375 392.660156 -445.898438 430.734375 -411.828125 C 468.804688 -377.765625 487.84375 -330.957031 487.84375 -271.40625 L 487.84375 0 L 390.796875 0 L 376.1875 -52.390625 C 336.6875 -11.734375 283.148438 8.59375 215.578125 8.59375 Z M 171.78125 -136.5625 C 171.78125 -121.101562 178.503906 -108.648438 191.953125 -99.203125 C 205.410156 -89.753906 223.304688 -85.03125 245.640625 -85.03125 C 278.273438 -85.03125 305.328125 -94.476562 326.796875 -113.375 C 348.273438 -132.269531 359.585938 -156.890625 360.734375 -187.234375 L 237.046875 -187.234375 C 217.578125 -187.234375 201.832031 -182.648438 189.8125 -173.484375 C 177.789062 -164.328125 171.78125 -152.019531 171.78125 -136.5625 Z M 171.78125 -136.5625 "/></g></g><g style="fill:#666666;fill-opacity:1;"><g transform="translate(2209.405344, 1312.778755)"><path style="stroke:none" d="M 65.28125 0 L 65.28125 -635.578125 L 195.828125 -635.578125 L 195.828125 0 Z M 65.28125 0 "/></g></g><g style="fill:#666666;fill-opacity:1;"><g transform="translate(2436.041825, 1312.778755)"><path style="stroke:none" d="M 278.28125 12.03125 C 230.1875 12.03125 187.671875 2.007812 150.734375 -18.03125 C 113.804688 -38.070312 85.035156 -65.984375 64.421875 -101.765625 C 43.804688 -137.554688 33.5 -178.929688 33.5 -225.890625 C 33.5 -272.835938 43.945312 -314.0625 64.84375 -349.5625 C 85.75 -385.0625 114.664062 -412.832031 151.59375 -432.875 C 188.53125 -452.914062 231.332031 -462.9375 280 -462.9375 C 331.53125 -462.9375 376.046875 -451.484375 413.546875 -428.578125 C 451.054688 -405.679688 479.6875 -373.617188 499.4375 -332.390625 C 519.195312 -291.160156 527.644531 -243.0625 524.78125 -188.09375 L 163.1875 -188.09375 C 169.488281 -157.175781 183.226562 -133.554688 204.40625 -117.234375 C 225.59375 -100.921875 251.078125 -92.765625 280.859375 -92.765625 C 302.617188 -92.765625 322.515625 -96.914062 340.546875 -105.21875 C 358.585938 -113.519531 373.046875 -125.113281 383.921875 -140 L 516.1875 -140 C 496.71875 -92.476562 466.082031 -55.257812 424.28125 -28.34375 C 382.488281 -1.425781 333.820312 12.03125 278.28125 12.03125 Z M 164.046875 -270.546875 L 398.53125 -270.546875 C 391.082031 -298.035156 377.191406 -319.648438 356.859375 -335.390625 C 336.535156 -351.140625 311.203125 -359.015625 280.859375 -359.015625 C 252.222656 -359.015625 227.457031 -351.140625 206.5625 -335.390625 C 185.664062 -319.648438 171.492188 -298.035156 164.046875 -270.546875 Z M 164.046875 -270.546875 "/></g></g><g style="fill:#666666;fill-opacity:1;"><g transform="translate(2958.879136, 1312.778755)"><path style="stroke:none" d="M 65.28125 0 L 65.28125 -450.921875 L 162.328125 -450.921875 L 179.515625 -390.796875 C 194.398438 -411.984375 212.71875 -427.300781 234.46875 -436.75 C 256.226562 -446.195312 283.71875 -450.921875 316.9375 -450.921875 L 365.890625 -450.921875 L 365.890625 -332.390625 L 316.078125 -332.390625 C 278.859375 -332.390625 249.507812 -322.367188 228.03125 -302.328125 C 206.5625 -282.285156 195.828125 -247.929688 195.828125 -199.265625 L 195.828125 0 Z M 65.28125 0 "/></g></g><g style="fill:#666666;fill-opacity:1;"><g transform="translate(3319.449988, 1312.778755)"><path style="stroke:none" d="M 282.578125 0 C 225.316406 0 181.367188 -14.742188 150.734375 -44.234375 C 120.097656 -73.722656 104.78125 -115.953125 104.78125 -170.921875 L 104.78125 -344.421875 L 17.171875 -344.421875 L 17.171875 -450.921875 L 57.546875 -450.921875 C 82.171875 -450.921875 98.921875 -454.925781 107.796875 -462.9375 C 116.671875 -470.957031 122.820312 -486.421875 126.25 -509.328125 L 133.984375 -567.734375 L 235.34375 -567.734375 L 235.34375 -450.921875 L 359.015625 -450.921875 L 359.015625 -344.421875 L 235.34375 -344.421875 L 235.34375 -190.671875 C 235.34375 -139.140625 260.535156 -113.375 310.921875 -113.375 L 365.03125 -113.375 L 365.03125 0 Z M 282.578125 0 "/></g></g></g></svg>