<svg xmlns="http://www.w3.org/2000/svg" xmlns:xlink="http://www.w3.org/1999/xlink" width="387" zoomAndPan="magnify" viewBox="0 0 290.25 111.749997" height="149" preserveAspectRatio="xMidYMid meet" version="1.2"><defs><clipPath id="92f0fe0b99"><path d="M 0 0.0195312 L 289.5 0.0195312 L 289.5 111.480469 L 0 111.480469 Z M 0 0.0195312 "/></clipPath><clipPath id="b6094cb970"><path d="M 41.628906 31 L 111 31 L 111 41 L 41.628906 41 Z M 41.628906 31 "/></clipPath><clipPath id="92fcad58c1"><path d="M 72 0.765625 L 165 0.765625 L 165 42 L 72 42 Z M 72 0.765625 "/></clipPath><clipPath id="3f57eced6e"><path d="M 40.882812 30 L 110 30 L 110 40 L 40.882812 40 Z M 40.882812 30 "/></clipPath><clipPath id="19da429eba"><path d="M 72 0.0195312 L 165 0.0195312 L 165 41.910156 L 72 41.910156 Z M 72 0.0195312 "/></clipPath></defs><g id="236d5e5477"><g clip-rule="nonzero" clip-path="url(#92f0fe0b99)"><path style=" stroke:none;fill-rule:nonzero;fill:#ffffff;fill-opacity:1;" d="M 0 0.0195312 L 289.5 0.0195312 L 289.5 111.480469 L 0 111.480469 Z M 0 0.0195312 "/></g><g style="fill:#737373;fill-opacity:1;"><g transform="translate(22.007448, 80.977253)"><path style="stroke:none" d="M 14.796875 0.59375 C 11.140625 0.59375 8.25 -0.257812 6.125 -1.96875 C 4.007812 -3.675781 2.953125 -6.023438 2.953125 -9.015625 C 2.953125 -11.878906 3.898438 -14.164062 5.796875 -15.875 C 7.703125 -17.582031 10.269531 -18.4375 13.5 -18.4375 L 24.6875 -18.4375 L 24.6875 -19.859375 C 24.6875 -21.390625 24.132812 -22.613281 23.03125 -23.53125 C 21.9375 -24.457031 20.503906 -24.921875 18.734375 -24.921875 C 17.285156 -24.921875 16.050781 -24.585938 15.03125 -23.921875 C 14.007812 -23.253906 13.359375 -22.367188 13.078125 -21.265625 L 4.484375 -21.265625 C 5.023438 -24.648438 6.539062 -27.242188 9.03125 -29.046875 C 11.53125 -30.859375 14.742188 -31.765625 18.671875 -31.765625 C 23.304688 -31.765625 26.929688 -30.59375 29.546875 -28.25 C 32.160156 -25.914062 33.46875 -22.707031 33.46875 -18.625 L 33.46875 0 L 26.8125 0 L 25.8125 -3.59375 C 23.09375 -0.800781 19.421875 0.59375 14.796875 0.59375 Z M 11.78125 -9.375 C 11.78125 -8.3125 12.238281 -7.453125 13.15625 -6.796875 C 14.082031 -6.148438 15.316406 -5.828125 16.859375 -5.828125 C 19.085938 -5.828125 20.9375 -6.472656 22.40625 -7.765625 C 23.882812 -9.066406 24.664062 -10.757812 24.75 -12.84375 L 16.265625 -12.84375 C 14.929688 -12.84375 13.847656 -12.523438 13.015625 -11.890625 C 12.191406 -11.265625 11.78125 -10.425781 11.78125 -9.375 Z M 11.78125 -9.375 "/></g></g><g style="fill:#737373;fill-opacity:1;"><g transform="translate(56.999795, 80.977253)"><path style="stroke:none" d="M 18.03125 0.828125 C 14.96875 0.828125 12.253906 0.128906 9.890625 -1.265625 C 7.535156 -2.660156 5.679688 -4.582031 4.328125 -7.03125 C 2.972656 -9.488281 2.296875 -12.3125 2.296875 -15.5 C 2.296875 -18.675781 2.972656 -21.484375 4.328125 -23.921875 C 5.679688 -26.359375 7.535156 -28.273438 9.890625 -29.671875 C 12.253906 -31.066406 14.96875 -31.765625 18.03125 -31.765625 C 20.269531 -31.765625 22.34375 -31.378906 24.25 -30.609375 C 26.15625 -29.835938 27.796875 -28.769531 29.171875 -27.40625 L 30.171875 -30.9375 L 36.828125 -30.9375 L 36.828125 11.78125 L 27.875 11.78125 L 27.875 -2.421875 C 26.53125 -1.398438 25.035156 -0.601562 23.390625 -0.03125 C 21.742188 0.539062 19.957031 0.828125 18.03125 0.828125 Z M 11.140625 -15.5 C 11.140625 -12.976562 11.929688 -10.910156 13.515625 -9.296875 C 15.109375 -7.691406 17.164062 -6.890625 19.6875 -6.890625 C 22.195312 -6.890625 24.238281 -7.691406 25.8125 -9.296875 C 27.382812 -10.910156 28.171875 -12.976562 28.171875 -15.5 C 28.171875 -18.007812 27.382812 -20.066406 25.8125 -21.671875 C 24.238281 -23.285156 22.195312 -24.09375 19.6875 -24.09375 C 17.164062 -24.09375 15.109375 -23.285156 13.515625 -21.671875 C 11.929688 -20.066406 11.140625 -18.007812 11.140625 -15.5 Z M 11.140625 -15.5 "/></g></g><g style="fill:#737373;fill-opacity:1;"><g transform="translate(95.939126, 80.977253)"><path style="stroke:none" d="M 16.796875 0.828125 C 12.785156 0.828125 9.628906 -0.4375 7.328125 -2.96875 C 5.035156 -5.507812 3.890625 -8.921875 3.890625 -13.203125 L 3.890625 -30.9375 L 12.84375 -30.9375 L 12.84375 -14.078125 C 12.84375 -11.804688 13.378906 -10.039062 14.453125 -8.78125 C 15.535156 -7.519531 17.019531 -6.890625 18.90625 -6.890625 C 20.957031 -6.890625 22.585938 -7.597656 23.796875 -9.015625 C 25.015625 -10.429688 25.625 -12.359375 25.625 -14.796875 L 25.625 -30.9375 L 34.59375 -30.9375 L 34.59375 0 L 27.921875 0 L 26.984375 -3.46875 C 25.765625 -2.019531 24.269531 -0.941406 22.5 -0.234375 C 20.738281 0.472656 18.835938 0.828125 16.796875 0.828125 Z M 16.796875 0.828125 "/></g></g><g style="fill:#737373;fill-opacity:1;"><g transform="translate(132.639872, 80.977253)"><path style="stroke:none" d="M 14.796875 0.59375 C 11.140625 0.59375 8.25 -0.257812 6.125 -1.96875 C 4.007812 -3.675781 2.953125 -6.023438 2.953125 -9.015625 C 2.953125 -11.878906 3.898438 -14.164062 5.796875 -15.875 C 7.703125 -17.582031 10.269531 -18.4375 13.5 -18.4375 L 24.6875 -18.4375 L 24.6875 -19.859375 C 24.6875 -21.390625 24.132812 -22.613281 23.03125 -23.53125 C 21.9375 -24.457031 20.503906 -24.921875 18.734375 -24.921875 C 17.285156 -24.921875 16.050781 -24.585938 15.03125 -23.921875 C 14.007812 -23.253906 13.359375 -22.367188 13.078125 -21.265625 L 4.484375 -21.265625 C 5.023438 -24.648438 6.539062 -27.242188 9.03125 -29.046875 C 11.53125 -30.859375 14.742188 -31.765625 18.671875 -31.765625 C 23.304688 -31.765625 26.929688 -30.59375 29.546875 -28.25 C 32.160156 -25.914062 33.46875 -22.707031 33.46875 -18.625 L 33.46875 0 L 26.8125 0 L 25.8125 -3.59375 C 23.09375 -0.800781 19.421875 0.59375 14.796875 0.59375 Z M 11.78125 -9.375 C 11.78125 -8.3125 12.238281 -7.453125 13.15625 -6.796875 C 14.082031 -6.148438 15.316406 -5.828125 16.859375 -5.828125 C 19.085938 -5.828125 20.9375 -6.472656 22.40625 -7.765625 C 23.882812 -9.066406 24.664062 -10.757812 24.75 -12.84375 L 16.265625 -12.84375 C 14.929688 -12.84375 13.847656 -12.523438 13.015625 -11.890625 C 12.191406 -11.265625 11.78125 -10.425781 11.78125 -9.375 Z M 11.78125 -9.375 "/></g></g><g style="fill:#2ea5e4;fill-opacity:1;"><g transform="translate(21.247693, 80.229187)"><path style="stroke:none" d="M 14.796875 0.59375 C 11.140625 0.59375 8.25 -0.257812 6.125 -1.96875 C 4.007812 -3.675781 2.953125 -6.023438 2.953125 -9.015625 C 2.953125 -11.878906 3.898438 -14.164062 5.796875 -15.875 C 7.703125 -17.582031 10.269531 -18.4375 13.5 -18.4375 L 24.6875 -18.4375 L 24.6875 -19.859375 C 24.6875 -21.390625 24.132812 -22.613281 23.03125 -23.53125 C 21.9375 -24.457031 20.503906 -24.921875 18.734375 -24.921875 C 17.285156 -24.921875 16.050781 -24.585938 15.03125 -23.921875 C 14.007812 -23.253906 13.359375 -22.367188 13.078125 -21.265625 L 4.484375 -21.265625 C 5.023438 -24.648438 6.539062 -27.242188 9.03125 -29.046875 C 11.53125 -30.859375 14.742188 -31.765625 18.671875 -31.765625 C 23.304688 -31.765625 26.929688 -30.59375 29.546875 -28.25 C 32.160156 -25.914062 33.46875 -22.707031 33.46875 -18.625 L 33.46875 0 L 26.8125 0 L 25.8125 -3.59375 C 23.09375 -0.800781 19.421875 0.59375 14.796875 0.59375 Z M 11.78125 -9.375 C 11.78125 -8.3125 12.238281 -7.453125 13.15625 -6.796875 C 14.082031 -6.148438 15.316406 -5.828125 16.859375 -5.828125 C 19.085938 -5.828125 20.9375 -6.472656 22.40625 -7.765625 C 23.882812 -9.066406 24.664062 -10.757812 24.75 -12.84375 L 16.265625 -12.84375 C 14.929688 -12.84375 13.847656 -12.523438 13.015625 -11.890625 C 12.191406 -11.265625 11.78125 -10.425781 11.78125 -9.375 Z M 11.78125 -9.375 "/></g></g><g style="fill:#2ea5e4;fill-opacity:1;"><g transform="translate(56.240039, 80.229187)"><path style="stroke:none" d="M 18.03125 0.828125 C 14.96875 0.828125 12.253906 0.128906 9.890625 -1.265625 C 7.535156 -2.660156 5.679688 -4.582031 4.328125 -7.03125 C 2.972656 -9.488281 2.296875 -12.3125 2.296875 -15.5 C 2.296875 -18.675781 2.972656 -21.484375 4.328125 -23.921875 C 5.679688 -26.359375 7.535156 -28.273438 9.890625 -29.671875 C 12.253906 -31.066406 14.96875 -31.765625 18.03125 -31.765625 C 20.269531 -31.765625 22.34375 -31.378906 24.25 -30.609375 C 26.15625 -29.835938 27.796875 -28.769531 29.171875 -27.40625 L 30.171875 -30.9375 L 36.828125 -30.9375 L 36.828125 11.78125 L 27.875 11.78125 L 27.875 -2.421875 C 26.53125 -1.398438 25.035156 -0.601562 23.390625 -0.03125 C 21.742188 0.539062 19.957031 0.828125 18.03125 0.828125 Z M 11.140625 -15.5 C 11.140625 -12.976562 11.929688 -10.910156 13.515625 -9.296875 C 15.109375 -7.691406 17.164062 -6.890625 19.6875 -6.890625 C 22.195312 -6.890625 24.238281 -7.691406 25.8125 -9.296875 C 27.382812 -10.910156 28.171875 -12.976562 28.171875 -15.5 C 28.171875 -18.007812 27.382812 -20.066406 25.8125 -21.671875 C 24.238281 -23.285156 22.195312 -24.09375 19.6875 -24.09375 C 17.164062 -24.09375 15.109375 -23.285156 13.515625 -21.671875 C 11.929688 -20.066406 11.140625 -18.007812 11.140625 -15.5 Z M 11.140625 -15.5 "/></g></g><g style="fill:#2ea5e4;fill-opacity:1;"><g transform="translate(95.17937, 80.229187)"><path style="stroke:none" d="M 16.796875 0.828125 C 12.785156 0.828125 9.628906 -0.4375 7.328125 -2.96875 C 5.035156 -5.507812 3.890625 -8.921875 3.890625 -13.203125 L 3.890625 -30.9375 L 12.84375 -30.9375 L 12.84375 -14.078125 C 12.84375 -11.804688 13.378906 -10.039062 14.453125 -8.78125 C 15.535156 -7.519531 17.019531 -6.890625 18.90625 -6.890625 C 20.957031 -6.890625 22.585938 -7.597656 23.796875 -9.015625 C 25.015625 -10.429688 25.625 -12.359375 25.625 -14.796875 L 25.625 -30.9375 L 34.59375 -30.9375 L 34.59375 0 L 27.921875 0 L 26.984375 -3.46875 C 25.765625 -2.019531 24.269531 -0.941406 22.5 -0.234375 C 20.738281 0.472656 18.835938 0.828125 16.796875 0.828125 Z M 16.796875 0.828125 "/></g></g><g style="fill:#69bbe6;fill-opacity:1;"><g transform="translate(131.891475, 80.229187)"><path style="stroke:none" d="M 14.796875 0.59375 C 11.140625 0.59375 8.25 -0.257812 6.125 -1.96875 C 4.007812 -3.675781 2.953125 -6.023438 2.953125 -9.015625 C 2.953125 -11.878906 3.898438 -14.164062 5.796875 -15.875 C 7.703125 -17.582031 10.269531 -18.4375 13.5 -18.4375 L 24.6875 -18.4375 L 24.6875 -19.859375 C 24.6875 -21.390625 24.132812 -22.613281 23.03125 -23.53125 C 21.9375 -24.457031 20.503906 -24.921875 18.734375 -24.921875 C 17.285156 -24.921875 16.050781 -24.585938 15.03125 -23.921875 C 14.007812 -23.253906 13.359375 -22.367188 13.078125 -21.265625 L 4.484375 -21.265625 C 5.023438 -24.648438 6.539062 -27.242188 9.03125 -29.046875 C 11.53125 -30.859375 14.742188 -31.765625 18.671875 -31.765625 C 23.304688 -31.765625 26.929688 -30.59375 29.546875 -28.25 C 32.160156 -25.914062 33.46875 -22.707031 33.46875 -18.625 L 33.46875 0 L 26.8125 0 L 25.8125 -3.59375 C 23.09375 -0.800781 19.421875 0.59375 14.796875 0.59375 Z M 11.78125 -9.375 C 11.78125 -8.3125 12.238281 -7.453125 13.15625 -6.796875 C 14.082031 -6.148438 15.316406 -5.828125 16.859375 -5.828125 C 19.085938 -5.828125 20.9375 -6.472656 22.40625 -7.765625 C 23.882812 -9.066406 24.664062 -10.757812 24.75 -12.84375 L 16.265625 -12.84375 C 14.929688 -12.84375 13.847656 -12.523438 13.015625 -11.890625 C 12.191406 -11.265625 11.78125 -10.425781 11.78125 -9.375 Z M 11.78125 -9.375 "/></g></g><g style="fill:#737373;fill-opacity:1;"><g transform="translate(166.934024, 80.977253)"><path style="stroke:none" d="M 4.484375 0 L 4.484375 -43.609375 L 13.4375 -43.609375 L 13.4375 0 Z M 4.484375 0 "/></g></g><g style="fill:#737373;fill-opacity:1;"><g transform="translate(182.486012, 80.977253)"><path style="stroke:none" d="M 19.09375 0.828125 C 15.789062 0.828125 12.875 0.140625 10.34375 -1.234375 C 7.8125 -2.609375 5.835938 -4.523438 4.421875 -6.984375 C 3.003906 -9.441406 2.296875 -12.28125 2.296875 -15.5 C 2.296875 -18.71875 3.007812 -21.546875 4.4375 -23.984375 C 5.875 -26.421875 7.859375 -28.328125 10.390625 -29.703125 C 12.929688 -31.078125 15.867188 -31.765625 19.203125 -31.765625 C 22.742188 -31.765625 25.800781 -30.976562 28.375 -29.40625 C 30.945312 -27.832031 32.910156 -25.628906 34.265625 -22.796875 C 35.617188 -19.972656 36.195312 -16.675781 36 -12.90625 L 11.1875 -12.90625 C 11.625 -10.78125 12.566406 -9.15625 14.015625 -8.03125 C 15.472656 -6.914062 17.222656 -6.359375 19.265625 -6.359375 C 20.753906 -6.359375 22.117188 -6.644531 23.359375 -7.21875 C 24.597656 -7.789062 25.59375 -8.585938 26.34375 -9.609375 L 35.40625 -9.609375 C 34.070312 -6.347656 31.972656 -3.789062 29.109375 -1.9375 C 26.242188 -0.09375 22.90625 0.828125 19.09375 0.828125 Z M 11.25 -18.5625 L 27.34375 -18.5625 C 26.832031 -20.445312 25.878906 -21.925781 24.484375 -23 C 23.085938 -24.082031 21.347656 -24.625 19.265625 -24.625 C 17.304688 -24.625 15.609375 -24.082031 14.171875 -23 C 12.734375 -21.925781 11.757812 -20.445312 11.25 -18.5625 Z M 11.25 -18.5625 "/></g></g><g style="fill:#737373;fill-opacity:1;"><g transform="translate(218.362019, 80.977253)"><path style="stroke:none" d="M 4.484375 0 L 4.484375 -30.9375 L 11.140625 -30.9375 L 12.3125 -26.8125 C 13.332031 -28.257812 14.585938 -29.304688 16.078125 -29.953125 C 17.578125 -30.609375 19.460938 -30.9375 21.734375 -30.9375 L 25.09375 -30.9375 L 25.09375 -22.796875 L 21.6875 -22.796875 C 19.132812 -22.796875 17.117188 -22.109375 15.640625 -20.734375 C 14.171875 -19.359375 13.4375 -17.003906 13.4375 -13.671875 L 13.4375 0 Z M 4.484375 0 "/></g></g><g style="fill:#737373;fill-opacity:1;"><g transform="translate(243.103989, 80.977253)"><path style="stroke:none" d="M 19.390625 0 C 15.460938 0 12.445312 -1.007812 10.34375 -3.03125 C 8.238281 -5.050781 7.1875 -7.945312 7.1875 -11.71875 L 7.1875 -23.625 L 1.171875 -23.625 L 1.171875 -30.9375 L 3.953125 -30.9375 C 5.640625 -30.9375 6.785156 -31.207031 7.390625 -31.75 C 8.003906 -32.300781 8.425781 -33.363281 8.65625 -34.9375 L 9.1875 -38.953125 L 16.140625 -38.953125 L 16.140625 -30.9375 L 24.625 -30.9375 L 24.625 -23.625 L 16.140625 -23.625 L 16.140625 -13.078125 C 16.140625 -9.546875 17.867188 -7.78125 21.328125 -7.78125 L 25.046875 -7.78125 L 25.046875 0 Z M 19.390625 0 "/></g></g><g clip-rule="nonzero" clip-path="url(#b6094cb970)"><path style=" stroke:none;fill-rule:nonzero;fill:#737373;fill-opacity:1;" d="M 110.089844 36.285156 C 97.90625 33.578125 87.242188 36.886719 75.453125 39.441406 C 63.847656 41.949219 52.515625 40.503906 41.628906 35.789062 C 53.8125 38.5 64.476562 35.1875 76.265625 32.632812 C 87.871094 30.125 99.203125 31.570312 110.089844 36.285156 "/></g><path style=" stroke:none;fill-rule:nonzero;fill:#737373;fill-opacity:1;" d="M 58.484375 29.671875 C 69.4375 17.476562 86.9375 10.105469 102.875 15.632812 C 110.617188 18.316406 117.855469 22.675781 126.027344 24.011719 C 134.871094 25.457031 142.984375 22.207031 150.410156 17.660156 L 150.769531 18.09375 C 145.5 23.957031 138.542969 28.390625 130.597656 29.332031 C 121.898438 30.363281 113.644531 27.144531 105.664062 24.140625 C 98.484375 21.433594 92.003906 19.742188 84.289062 21.167969 C 75.425781 22.800781 67.027344 26.503906 58.828125 30.125 L 58.484375 29.671875 "/><g clip-rule="nonzero" clip-path="url(#92fcad58c1)"><path style=" stroke:none;fill-rule:nonzero;fill:#737373;fill-opacity:1;" d="M 72.808594 29.472656 C 80.210938 23.847656 92.34375 25.152344 100.671875 26.808594 C 106.6875 28.007812 112.320312 30.195312 118.179688 31.941406 C 127.199219 34.617188 137.421875 34.152344 145.8125 29.660156 C 149.703125 27.578125 153.0625 24.578125 154.726562 20.398438 C 157.230469 14.101562 155.351562 7.5 154.21875 1.144531 L 154.679688 0.824219 C 162.6875 5.902344 166.964844 16.164062 164.027344 25.320312 C 160.707031 35.679688 150.019531 41.277344 139.675781 41.71875 C 124.296875 42.382812 112.238281 33.050781 98.0625 29.121094 C 90.734375 27.089844 80.066406 25.34375 73.164062 29.917969 L 72.808594 29.472656 "/></g><g clip-rule="nonzero" clip-path="url(#3f57eced6e)"><path style=" stroke:none;fill-rule:nonzero;fill:#2ea5e4;fill-opacity:1;" d="M 109.34375 35.535156 C 97.160156 32.828125 86.492188 36.140625 74.703125 38.691406 C 63.097656 41.203125 51.769531 39.757812 40.882812 35.039062 C 53.066406 37.753906 63.730469 34.4375 75.519531 31.886719 C 87.125 29.375 98.453125 30.820312 109.34375 35.535156 "/></g><path style=" stroke:none;fill-rule:nonzero;fill:#8fd8ff;fill-opacity:1;" d="M 57.738281 28.921875 C 68.6875 16.730469 86.191406 9.359375 102.125 14.882812 C 109.867188 17.566406 117.109375 21.925781 125.277344 23.261719 C 134.125 24.707031 142.238281 21.460938 149.660156 16.914062 L 150.019531 17.347656 C 144.75 23.207031 137.792969 27.640625 129.851562 28.585938 C 121.148438 29.617188 112.898438 26.398438 104.914062 23.390625 C 97.738281 20.683594 91.257812 18.992188 83.539062 20.417969 C 74.675781 22.050781 66.277344 25.757812 58.078125 29.375 L 57.738281 28.921875 "/><g clip-rule="nonzero" clip-path="url(#19da429eba)"><path style=" stroke:none;fill-rule:nonzero;fill:#8fd8ff;fill-opacity:1;" d="M 72.058594 28.726562 C 79.464844 23.097656 91.59375 24.402344 99.925781 26.0625 C 105.941406 27.261719 111.574219 29.449219 117.429688 31.191406 C 126.449219 33.871094 136.671875 33.402344 145.0625 28.914062 C 148.957031 26.832031 152.316406 23.832031 153.976562 19.648438 C 156.480469 13.351562 154.601562 6.753906 153.472656 0.398438 L 153.933594 0.0742188 C 161.941406 5.152344 166.21875 15.414062 163.277344 24.570312 C 159.960938 34.929688 149.269531 40.527344 138.925781 40.972656 C 123.550781 41.636719 111.492188 32.304688 97.3125 28.375 C 89.984375 26.339844 79.320312 24.597656 72.417969 29.167969 L 72.058594 28.726562 "/></g><g style="fill:#8fd8ff;fill-opacity:1;"><g transform="translate(166.185957, 80.229187)"><path style="stroke:none" d="M 4.484375 0 L 4.484375 -43.609375 L 13.4375 -43.609375 L 13.4375 0 Z M 4.484375 0 "/></g></g><g style="fill:#8fd8ff;fill-opacity:1;"><g transform="translate(181.737945, 80.229187)"><path style="stroke:none" d="M 19.09375 0.828125 C 15.789062 0.828125 12.875 0.140625 10.34375 -1.234375 C 7.8125 -2.609375 5.835938 -4.523438 4.421875 -6.984375 C 3.003906 -9.441406 2.296875 -12.28125 2.296875 -15.5 C 2.296875 -18.71875 3.007812 -21.546875 4.4375 -23.984375 C 5.875 -26.421875 7.859375 -28.328125 10.390625 -29.703125 C 12.929688 -31.078125 15.867188 -31.765625 19.203125 -31.765625 C 22.742188 -31.765625 25.800781 -30.976562 28.375 -29.40625 C 30.945312 -27.832031 32.910156 -25.628906 34.265625 -22.796875 C 35.617188 -19.972656 36.195312 -16.675781 36 -12.90625 L 11.1875 -12.90625 C 11.625 -10.78125 12.566406 -9.15625 14.015625 -8.03125 C 15.472656 -6.914062 17.222656 -6.359375 19.265625 -6.359375 C 20.753906 -6.359375 22.117188 -6.644531 23.359375 -7.21875 C 24.597656 -7.789062 25.59375 -8.585938 26.34375 -9.609375 L 35.40625 -9.609375 C 34.070312 -6.347656 31.972656 -3.789062 29.109375 -1.9375 C 26.242188 -0.09375 22.90625 0.828125 19.09375 0.828125 Z M 11.25 -18.5625 L 27.34375 -18.5625 C 26.832031 -20.445312 25.878906 -21.925781 24.484375 -23 C 23.085938 -24.082031 21.347656 -24.625 19.265625 -24.625 C 17.304688 -24.625 15.609375 -24.082031 14.171875 -23 C 12.734375 -21.925781 11.757812 -20.445312 11.25 -18.5625 Z M 11.25 -18.5625 "/></g></g><g style="fill:#8fd8ff;fill-opacity:1;"><g transform="translate(217.613952, 80.229187)"><path style="stroke:none" d="M 4.484375 0 L 4.484375 -30.9375 L 11.140625 -30.9375 L 12.3125 -26.8125 C 13.332031 -28.257812 14.585938 -29.304688 16.078125 -29.953125 C 17.578125 -30.609375 19.460938 -30.9375 21.734375 -30.9375 L 25.09375 -30.9375 L 25.09375 -22.796875 L 21.6875 -22.796875 C 19.132812 -22.796875 17.117188 -22.109375 15.640625 -20.734375 C 14.171875 -19.359375 13.4375 -17.003906 13.4375 -13.671875 L 13.4375 0 Z M 4.484375 0 "/></g></g><g style="fill:#8fd8ff;fill-opacity:1;"><g transform="translate(242.355922, 80.229187)"><path style="stroke:none" d="M 19.390625 0 C 15.460938 0 12.445312 -1.007812 10.34375 -3.03125 C 8.238281 -5.050781 7.1875 -7.945312 7.1875 -11.71875 L 7.1875 -23.625 L 1.171875 -23.625 L 1.171875 -30.9375 L 3.953125 -30.9375 C 5.640625 -30.9375 6.785156 -31.207031 7.390625 -31.75 C 8.003906 -32.300781 8.425781 -33.363281 8.65625 -34.9375 L 9.1875 -38.953125 L 16.140625 -38.953125 L 16.140625 -30.9375 L 24.625 -30.9375 L 24.625 -23.625 L 16.140625 -23.625 L 16.140625 -13.078125 C 16.140625 -9.546875 17.867188 -7.78125 21.328125 -7.78125 L 25.046875 -7.78125 L 25.046875 0 Z M 19.390625 0 "/></g></g></g></svg>